PathFileType	4	(X/Y/Z)	C:/Users/opensim2020/Desktop/walking_exp_matlab/subject03_walking08_straight_02.trc																																																																																																																																																							
DataRate	CameraRate	NumFrames	NumMarkers	Units	OrigDataRate	OrigDataStartFrame	OrigNumFrames																																																																																																																																																			
100	100	7	51	mm	100	1749	314																																																																																																																																																			
Frame#	Time	LFHD			RFHD			LBHD			RBHD			C7			T10			CLAV			STRN			RBAK			LSHO			LUPA			LELB			LFRM			LWRA			LWRB			LFIN			RSHO			RUPA			RELB			RFRM			RWRA			RWRB			RFIN			LASI			RASI			LPSI			RPSI			LTHI			LKNE			LTIB			LANK			LHEE			LTOE			RTHI			RKNE			RTIB			RANK			RHEE			RTOE			*39			*40			*41			*42			*43			*44			*45			*46			*47			*48			*49			*50		
		X1	Y1	Z1	X2	Y2	Z2	X3	Y3	Z3	X4	Y4	Z4	X5	Y5	Z5	X6	Y6	Z6	X7	Y7	Z7	X8	Y8	Z8	X9	Y9	Z9	X10	Y10	Z10	X11	Y11	Z11	X12	Y12	Z12	X13	Y13	Z13	X14	Y14	Z14	X15	Y15	Z15	X16	Y16	Z16	X17	Y17	Z17	X18	Y18	Z18	X19	Y19	Z19	X20	Y20	Z20	X21	Y21	Z21	X22	Y22	Z22	X23	Y23	Z23	X24	Y24	Z24	X25	Y25	Z25	X26	Y26	Z26	X27	Y27	Z27	X28	Y28	Z28	X29	Y29	Z29	X30	Y30	Z30	X31	Y31	Z31	X32	Y32	Z32	X33	Y33	Z33	X34	Y34	Z34	X35	Y35	Z35	X36	Y36	Z36	X37	Y37	Z37	X38	Y38	Z38	X39	Y39	Z39	X40	Y40	Z40	X41	Y41	Z41	X42	Y42	Z42	X43	Y43	Z43	X44	Y44	Z44	X45	Y45	Z45	X46	Y46	Z46	X47	Y47	Z47	X48	Y48	Z48	X49	Y49	Z49	X50	Y50	Z50	X51	Y51	Z51
																																																																																																																																																										
197	1.96	404.28577	1599.93726	-1524.10681	391.7984	1604.56531	-1391.42139	270.6658	1578.77405	-1531.82361	263.65378	1582.29858	-1400.45459	213.0804	1414.99316	-1465.19312	171.93826	1099.09033	-1459.08252	330.38031	1332.71887	-1469.02319	370.82336	1167.83667	-1470.90808	162.02332	1240.49438	-1358.71033	276.03842	1366.6842	-1623.76929	240.03111	1167.70068	-1686.52869	232.5303	1044.03516	-1694.7384	249.47791	914.91486	-1691.49207	263.25217	797.78674	-1657.78174	235.25137	801.96246	-1706.08154	246.73505	718.7594	-1694.40222	299.21094	1360.88586	-1308.68738	346.21686	1146.38843	-1230.79517	391.2226	1043.61194	-1219.43982	450.3497	920.59686	-1224.85327	502.7677	841.02136	-1269.5564	483.14151	825.73761	-1221.63989	527.65503	768.38605	-1237.1687	338.47852	935.67737	-1578.10156	334.39355	930.5495	-1340.19055	174.50262	953.07635	-1531.7179	175.45392	965.43512	-1381.66492	352.04312	638.36011	-1633.60413	423.15082	476.246	-1590.07483	421.67349	283.38385	-1592.90735	462.7785	76.03408	-1559.33618	432.65079	33.73369	-1518.02832	615.41919	67.9919	-1537.6311	242.08	640.99768	-1307.479	222.05679	462.52179	-1345.52063	141.12097	287.62708	-1345.60327	70.57411	82.68006	-1396.28809	23.27742	55.87904	-1447.47278	207.2361	36.64658	-1405.7915	330.38504	1675.65112	-1480.49243	NaN	NaN	NaN	NaN	NaN	NaN	NaN	NaN	NaN	NaN	NaN	NaN	NaN	NaN	NaN	NaN	NaN	NaN	NaN	NaN	NaN	NaN	NaN	NaN	NaN	NaN	NaN	NaN	NaN	NaN	NaN	NaN	NaN
198	1.97	412.98923	1599.02673	-1524.81226	400.26697	1603.74524	-1392.11023	279.3826	1577.94739	-1532.69946	272.10162	1581.62122	-1401.34033	221.57594	1414.43677	-1466.27393	180.12311	1098.47412	-1460.27966	338.95984	1331.77368	-1469.59216	379.30096	1166.93774	-1471.3302	169.85406	1239.82092	-1360.08447	285.021	1365.78174	-1624.62561	248.70364	1166.81909	-1687.24683	240.80659	1043.17822	-1695.29578	257.07376	913.90942	-1691.87976	269.72171	796.35052	-1657.31165	242.34752	800.93958	-1706.23254	253.10205	717.68048	-1694.42432	307.34921	1359.85059	-1309.25562	353.54138	1145.06592	-1231.77576	398.51672	1042.33643	-1220.47632	458.11554	919.62115	-1226.24512	512.1123	841.01678	-1270.95435	491.4205	824.87573	-1223.59363	536.3576	767.97974	-1239.15039	347.44077	934.46466	-1578.31543	341.81946	929.68011	-1340.37219	183.14183	952.31073	-1532.97302	183.15637	964.86621	-1382.84521	359.4874	636.75824	-1634.16125	429.33853	474.53088	-1589.39587	433.40344	282.67068	-1592.83716	482.24518	76.50326	-1560.677	453.56815	33.2581	-1519.62427	635.55615	72.56611	-1538.12366	247.60298	640.69128	-1307.70984	226.5502	462.31903	-1345.30408	143.72202	288.2323	-1345.54968	71.27922	83.90971	-1396.55554	23.86437	57.4466	-1447.58655	207.43132	36.62753	-1405.54736	NaN	NaN	NaN	NaN	NaN	NaN	NaN	NaN	NaN	NaN	NaN	NaN	NaN	NaN	NaN	NaN	NaN	NaN	NaN	NaN	NaN	NaN	NaN	NaN	NaN	NaN	NaN	NaN	NaN	NaN	NaN	NaN	NaN	NaN	NaN	NaN
199	1.98	421.75809	1598.23145	-1525.52161	408.79437	1603.03333	-1392.83118	288.14069	1577.19897	-1533.5802	280.57172	1580.98962	-1402.35291	230.17116	1413.71375	-1467.39661	188.5536	1097.69263	-1461.48608	347.49283	1331.02405	-1470.27893	387.83755	1166.24182	-1471.77014	177.72166	1239.15784	-1361.42371	294.12604	1365.01697	-1625.52991	257.63733	1165.97998	-1687.98535	249.31862	1042.2511	-1695.83398	265.01144	912.92181	-1692.25989	280.59201	797.91089	-1660.78528	249.60373	800.05133	-1706.63855	259.83664	716.62286	-1694.48279	315.35449	1358.88208	-1309.95544	360.7016	1143.8092	-1232.84619	405.5394	1041.04456	-1221.58704	465.69559	918.65894	-1227.75342	520.40936	840.66876	-1272.54199	499.2908	823.995	-1225.526	544.67603	767.47784	-1241.15869	356.60568	933.38184	-1578.57397	349.32236	928.90076	-1340.54944	192.06859	951.46283	-1534.33203	191.06314	964.25043	-1384.30115	367.13986	635.29553	-1634.42566	435.38211	472.7778	-1588.70093	444.28351	282.10349	-1592.99548	499.79697	77.06799	-1562.25879	472.6871	32.88194	-1521.33813	653.71271	76.53041	-1538.57959	253.31129	640.51544	-1307.97327	231.29839	462.18759	-1345.21448	146.47963	288.86981	-1345.47327	71.85862	85.33687	-1396.3999	24.28874	59.32727	-1447.52393	207.55551	36.57851	-1405.42883	NaN	NaN	NaN	NaN	NaN	NaN	NaN	NaN	NaN	NaN	NaN	NaN	NaN	NaN	NaN	NaN	NaN	NaN	NaN	NaN	NaN	NaN	NaN	NaN	NaN	NaN	NaN	NaN	NaN	NaN	NaN	NaN	NaN	NaN	NaN	NaN
200	1.99	430.54477	1597.48096	-1526.19238	417.34021	1602.43262	-1393.51843	296.95819	1576.55786	-1534.59924	289.08109	1580.44946	-1403.29822	238.91101	1412.95532	-1468.37878	197.0491	1097.06665	-1462.84473	356.07123	1330.32007	-1470.95374	396.38373	1165.56616	-1472.18201	185.6297	1238.53979	-1362.88904	303.28287	1364.24316	-1626.43408	266.91537	1165.14722	-1688.75012	258.21445	1041.41516	-1696.44263	273.22168	911.99677	-1692.66577	284.33469	794.28943	-1657.74231	257.41913	799.15668	-1706.87244	266.84277	715.64783	-1694.58618	323.40363	1357.99768	-1310.57483	367.81915	1142.54297	-1234.06543	412.42752	1039.71484	-1222.83167	473.01587	917.51685	-1229.30933	527.76019	839.74847	-1274.3667	506.75101	822.92615	-1227.58655	552.7207	766.78558	-1243.03662	365.91132	932.41541	-1578.87524	357.0304	928.28351	-1340.66895	201.03442	950.86011	-1535.96375	198.97768	963.78894	-1385.92957	374.84976	633.96375	-1634.38696	441.48764	471.09174	-1588.09326	454.4783	281.7164	-1593.26099	515.41064	77.42238	-1563.2981	488.65277	33.32586	-1523.25793	669.76953	79.77455	-1539.17871	259.09338	640.3316	-1307.83008	236.37453	462.0502	-1345.08044	149.41699	289.62186	-1345.35449	72.42344	86.89362	-1395.92249	24.56895	61.47934	-1447.28259	207.69275	36.50248	-1405.229	356.6138	1673.02832	-1483.02002	NaN	NaN	NaN	NaN	NaN	NaN	NaN	NaN	NaN	NaN	NaN	NaN	NaN	NaN	NaN	NaN	NaN	NaN	NaN	NaN	NaN	NaN	NaN	NaN	NaN	NaN	NaN	NaN	NaN	NaN	NaN	NaN	NaN
201	2	439.41165	1596.8197	-1526.83655	425.85785	1601.88489	-1394.28833	305.77942	1575.88623	-1535.5564	297.68274	1579.93237	-1404.29468	247.57501	1412.38953	-1469.45618	205.56766	1096.55981	-1464.37744	364.79803	1329.86255	-1471.70874	404.94315	1164.9353	-1472.64917	193.62712	1237.91528	-1364.297	312.55933	1363.56921	-1627.33545	276.43292	1164.422	-1689.56348	267.31796	1040.62793	-1697.05505	281.74097	911.18536	-1693.12915	292.43167	793.76489	-1658.62683	265.32553	798.38885	-1707.43433	274.16208	714.73633	-1694.73242	331.41885	1357.26672	-1311.34326	374.80911	1141.3468	-1235.33447	419.15054	1038.37073	-1224.20618	479.8688	916.32544	-1230.86633	535.96802	839.40466	-1275.63306	513.8526	821.74323	-1229.59595	560.12097	765.97729	-1244.92358	375.32864	931.57239	-1579.21631	364.81592	927.72021	-1341.02185	210.20589	950.32758	-1537.66138	207.14149	963.21381	-1387.66638	382.6011	632.67981	-1634.11194	447.75003	469.45831	-1587.51672	463.89105	281.25262	-1593.5647	528.71252	77.90879	-1564.95569	502.33496	33.2625	-1525.0271	683.1095	82.11099	-1539.823	265.34955	640.35083	-1308.14343	241.7502	462.03589	-1344.91577	152.64946	290.54916	-1345.21667	73.14133	88.65198	-1395.61841	25.156	63.82993	-1447.08752	207.85641	36.43615	-1405.04688	365.32996	1672.3783	-1483.96509	NaN	NaN	NaN	NaN	NaN	NaN	NaN	NaN	NaN	NaN	NaN	NaN	NaN	NaN	NaN	NaN	NaN	NaN	NaN	NaN	NaN	NaN	NaN	NaN	NaN	NaN	NaN	NaN	NaN	NaN	NaN	NaN	NaN
202	2.01	448.23987	1596.22339	-1527.58386	434.43387	1601.38611	-1395.0188	314.621	1575.30261	-1536.48474	306.26248	1579.41589	-1405.39233	256.25323	1411.97498	-1470.71008	214.3423	1095.94531	-1465.81873	373.50684	1329.19055	-1472.33447	413.69995	1164.46045	-1473.25012	201.77953	1237.31262	-1365.77148	321.91119	1363.00769	-1628.2821	286.05301	1163.76636	-1690.34167	276.76703	1039.98755	-1697.75195	290.56488	910.47388	-1693.59717	303.13553	794.70215	-1660.98975	273.76913	797.67188	-1707.79004	281.60782	714.02484	-1694.85449	338.83743	1356.67529	-1312.30896	381.61118	1140.16638	-1236.64453	425.67578	1037.09253	-1225.62024	486.58978	915.09961	-1232.55859	542.6308	838.35199	-1277.43848	520.51147	820.48645	-1231.64624	567.11267	765.00397	-1246.7594	384.936	930.88776	-1579.67932	372.80896	927.35028	-1341.62061	219.70287	949.7135	-1539.41443	215.3149	962.85828	-1389.44983	390.4682	631.57861	-1633.83154	454.67688	468.16986	-1587.19775	472.50302	280.65881	-1593.89465	539.51794	77.69431	-1565.97168	513.87097	32.29395	-1526.26306	693.87122	83.63141	-1540.41382	271.73651	640.39471	-1308.54053	247.48251	461.97983	-1344.84033	156.23177	291.5545	-1345.14575	74.06804	90.60701	-1395.34717	25.83436	66.48344	-1446.8811	208.04216	36.35914	-1404.88135	374.04099	1671.85754	-1484.84558	NaN	NaN	NaN	NaN	NaN	NaN	NaN	NaN	NaN	NaN	NaN	NaN	NaN	NaN	NaN	NaN	NaN	NaN	NaN	NaN	NaN	NaN	NaN	NaN	NaN	NaN	NaN	NaN	NaN	NaN	NaN	NaN	NaN
203	2.02	457.09842	1595.65747	-1528.27295	442.90933	1601.00171	-1395.76282	323.52386	1574.78052	-1537.54285	314.84677	1578.96265	-1406.36792	264.96323	1411.47754	-1471.86902	223.35078	1095.32874	-1467.39197	382.22769	1328.76477	-1473.04016	422.68301	1164.08459	-1473.88538	209.98488	1236.77795	-1367.27759	331.33633	1362.53235	-1629.22656	295.91641	1163.24927	-1691.15576	286.38208	1039.45081	-1698.37476	299.67502	909.84357	-1694.15991	311.43365	793.9671	-1661.30054	282.4642	797.11676	-1708.54138	289.74881	713.29657	-1695.19348	346.83786	1356.10938	-1313.14417	388.39716	1139.07019	-1238.07764	432.04437	1035.81543	-1227.14233	492.91144	913.84668	-1234.19373	549.74396	837.46747	-1279.05969	526.83459	819.17902	-1233.70801	573.87085	764.00555	-1248.64355	394.64697	930.33398	-1580.16956	381.03543	927.05786	-1342.1676	229.2643	949.41876	-1541.18958	223.80637	962.47852	-1391.26331	398.73941	630.62427	-1633.48364	462.38077	467.16232	-1587.08032	480.48056	279.81067	-1594.35364	547.66223	76.48995	-1566.0293	522.22998	30.95329	-1526.88831	701.9679	83.6625	-1541.005	278.52841	640.49567	-1308.86462	253.58461	461.99246	-1344.68958	160.01149	292.61026	-1345.08984	75.43486	92.69329	-1395.28479	26.85628	69.20912	-1446.62988	208.25894	36.31503	-1404.69421	382.59183	1673.1842	-1486.0918	NaN	NaN	NaN	NaN	NaN	NaN	NaN	NaN	NaN	NaN	NaN	NaN	NaN	NaN	NaN	NaN	NaN	NaN	NaN	NaN	NaN	NaN	NaN	NaN	NaN	NaN	NaN	NaN	NaN	NaN	NaN	NaN	NaN
